<?xml version="1.0" standalone="no"?>
<!DOCTYPE svg PUBLIC "-//W3C//DTD SVG 20010904//EN"
 "http://www.w3.org/TR/2001/REC-SVG-20010904/DTD/svg10.dtd">
<svg version="1.0" xmlns="http://www.w3.org/2000/svg"
 width="200.000000pt" height="200.000000pt" viewBox="0 0 200.000000 200.000000"
 preserveAspectRatio="xMidYMid meet">

<g transform="translate(0.000000,200.000000) scale(0.100000,-0.100000)"
fill="#000000" stroke="none">
<path d="M656 1574 l-38 -56 13 -202 c7 -119 17 -204 23 -208 6 -5 37 -15 69
-24 65 -19 47 8 162 -244 96 -211 106 -230 111 -230 4 0 70 66 148 146 l141
147 -3 111 c-4 124 8 101 -100 197 -24 21 -66 58 -94 81 -41 34 -177 153 -244
213 -6 6 -35 30 -64 54 -29 25 -58 51 -66 58 -7 7 -15 13 -17 13 -2 0 -21 -25
-41 -56z m195 -128 c69 -61 185 -163 257 -226 110 -95 132 -119 132 -142 0
-35 -27 -38 -39 -5 -5 12 -53 60 -107 107 -102 89 -105 92 -273 239 -58 50
-108 88 -111 84 -10 -11 5 -322 16 -332 7 -7 220 -77 500 -166 6 -2 15 -20 18
-40 6 -32 3 -41 -30 -78 -74 -82 -198 -207 -206 -207 -5 0 -11 8 -15 18 -3 9
-39 88 -80 176 -40 87 -73 160 -73 162 0 2 9 4 20 4 18 0 68 -91 141 -257 7
-18 16 -33 19 -33 3 0 45 40 94 89 108 109 111 125 21 153 -297 94 -441 142
-447 147 -3 3 -12 88 -18 188 -12 180 -12 182 10 212 12 18 26 28 33 24 6 -4
68 -57 138 -117z m39 -140 c63 -56 120 -105 126 -111 6 -5 36 -32 67 -59 32
-27 56 -51 54 -53 -2 -2 -44 9 -93 25 -49 15 -132 41 -185 57 l-97 30 -6 44
c-3 24 -6 75 -6 113 0 53 3 67 13 62 6 -4 64 -53 127 -108z m162 -327 c51 -17
95 -33 97 -35 5 -5 -110 -124 -120 -124 -3 0 -13 17 -21 38 -9 20 -27 63 -42
95 -14 31 -22 57 -16 57 5 0 51 -14 102 -31z"/>
<path d="M213 510 c-46 -19 -35 -78 22 -116 29 -19 34 -54 7 -54 -10 0 -23 5
-29 11 -13 13 -33 4 -33 -16 0 -33 77 -47 104 -19 29 28 20 68 -24 108 -22 20
-40 40 -40 46 0 14 38 12 43 -2 3 -10 8 -10 21 1 14 12 15 17 4 27 -19 18 -50
24 -75 14z"/>
<path d="M1753 513 c-66 -13 -97 -124 -50 -178 44 -51 136 -43 170 14 51 86
-21 184 -120 164z m74 -55 c47 -44 20 -118 -43 -118 -66 0 -94 79 -42 123 27
23 57 22 85 -5z"/>
<path d="M321 426 c5 -105 22 -131 83 -123 21 3 43 11 47 19 5 7 9 52 9 101 0
71 -3 87 -15 87 -12 0 -15 -14 -15 -62 0 -86 -7 -108 -35 -108 -29 0 -35 16
-35 101 0 63 -2 69 -21 69 -20 0 -21 -4 -18 -84z"/>
<path d="M501 423 c-8 -49 -16 -94 -18 -100 -3 -8 3 -13 15 -13 16 0 22 11 32
62 l14 62 19 -62 c22 -70 49 -84 68 -34 6 15 17 41 24 57 l12 30 9 -55 c7 -41
14 -56 28 -58 17 -4 18 1 12 45 -17 120 -27 153 -47 153 -10 0 -19 -1 -19 -3
0 -2 -11 -34 -24 -72 l-24 -68 -23 71 c-19 59 -27 72 -44 72 -19 0 -22 -10
-34 -87z"/>
<path d="M740 425 c0 -97 16 -125 70 -125 54 0 70 28 70 125 0 78 -2 85 -20
85 -17 0 -19 -8 -22 -82 -3 -81 -4 -83 -28 -83 -24 0 -25 2 -28 83 -3 74 -5
82 -22 82 -18 0 -20 -7 -20 -85z"/>
<path d="M890 490 c0 -13 7 -20 20 -20 18 0 20 -7 20 -80 0 -73 2 -80 20 -80
18 0 20 7 20 79 0 70 2 79 20 84 11 3 20 12 20 21 0 13 -12 16 -60 16 -53 0
-60 -2 -60 -20z"/>
<path d="M1060 490 c0 -13 7 -20 20 -20 18 0 20 -7 20 -80 0 -73 2 -80 20 -80
18 0 20 7 20 79 0 70 2 79 20 84 11 3 20 12 20 21 0 13 -12 16 -60 16 -53 0
-60 -2 -60 -20z"/>
<path d="M1190 410 l0 -100 55 0 c42 0 55 3 55 15 0 10 -11 15 -35 15 -32 0
-35 2 -35 30 0 28 3 30 35 30 28 0 35 4 35 20 0 16 -7 20 -35 20 -24 0 -35 5
-35 15 0 10 11 15 35 15 28 0 35 4 35 20 0 18 -7 20 -55 20 l-55 0 0 -100z"/>
<path d="M1320 410 c0 -92 1 -100 19 -100 16 0 20 8 23 43 l3 42 29 -42 c20
-31 36 -43 52 -43 24 0 24 0 -11 51 -19 28 -35 55 -35 60 0 4 14 24 30 42 36
41 37 47 8 47 -14 0 -31 -12 -43 -30 -25 -38 -35 -38 -35 0 0 23 -4 30 -20 30
-19 0 -20 -7 -20 -100z"/>
<path d="M1490 410 c0 -82 3 -100 15 -100 12 0 15 13 15 60 0 33 3 60 8 60 4
0 24 -27 45 -60 25 -41 43 -60 57 -60 19 0 20 7 20 100 0 93 -1 100 -20 100
-16 0 -19 -8 -22 -62 l-3 -62 -38 62 c-26 42 -45 62 -58 62 -18 0 -19 -8 -19
-100z"/>
</g>
</svg>
